<?xml version="1.0" encoding="UTF-8" standalone="no"?>
<svg
   id="Layer_2"
   data-name="Layer 2"
   viewBox="0 0 1022.5 616.67"
   version="1.1"
   sodipodi:docname="logo.svg"
   inkscape:version="1.1.1 (3bf5ae0d25, 2021-09-20)"
   xmlns:inkscape="http://www.inkscape.org/namespaces/inkscape"
   xmlns:sodipodi="http://sodipodi.sourceforge.net/DTD/sodipodi-0.dtd"
   xmlns="http://www.w3.org/2000/svg"
   xmlns:svg="http://www.w3.org/2000/svg">
  <sodipodi:namedview
     id="namedview41"
     pagecolor="#ffffff"
     bordercolor="#666666"
     borderopacity="1.0"
     inkscape:pageshadow="2"
     inkscape:pageopacity="0.0"
     inkscape:pagecheckerboard="0"
     showgrid="false"
     inkscape:zoom="1.4142136"
     inkscape:cx="463.86205"
     inkscape:cy="175.36248"
     inkscape:window-width="2560"
     inkscape:window-height="1398"
     inkscape:window-x="1024"
     inkscape:window-y="42"
     inkscape:window-maximized="1"
     inkscape:current-layer="Layer_2" />
  <defs
     id="defs4">
    <style
       id="style2">.cls-1{fill:#0156d3;}.cls-2{fill:#00aee2;}.cls-3{fill:#00c0f1;}.cls-4{fill:#fff;}</style>
  </defs>
  <path
     class="cls-3"
     d="M202.23,351.45S404.51,199.17,649.46,138.17L543.41,75.33C389.57,114.15,202.23,351.45,202.23,351.45Z"
     transform="translate(-1.5 -75.33)"
     id="path10" />
  <path
     class="cls-2"
     d="M201.63,351.59S512.93,227.9,804.78,195.93l-105.3-66.84C395.67,171.47,201.63,351.59,201.63,351.59Z"
     id="path8"
     transform="translate(-1.5 -75.33)" />
  <path
     class="cls-1"
     d="M 200.01,275.78364 165.65,366.7153 790.39,445.84 1022.5,112.74519 c 0,0 -298.71,-37.649747 -822.49,163.03845 z"
     id="path6"
     style="stroke-width:1.00199" />
  <path
     class="cls-3"
     d="M167.2,661q7.41,5.94,21.85,6a40,40,0,0,0,11.68-1.47,22.57,22.57,0,0,0,7.72-4,14.11,14.11,0,0,0,4.26-5.83,20.26,20.26,0,0,0,1.29-7.32A15.64,15.64,0,0,0,209.86,638q-4.16-4.85-15.23-7l-18.39-3.39a108.84,108.84,0,0,1-19.18-5.16,44.38,44.38,0,0,1-13.94-8.23,33.09,33.09,0,0,1-8.59-12.37,46.25,46.25,0,0,1-2.94-17.41,37.6,37.6,0,0,1,4.07-17.8A36.55,36.55,0,0,1,147,553.7a52.88,52.88,0,0,1,17.32-7.79,86.59,86.59,0,0,1,22.16-2.65q15.44,0,25.71,3.59a46.94,46.94,0,0,1,16.61,9.42,36.86,36.86,0,0,1,9.38,13.56,63.82,63.82,0,0,1,4,16l-27.9,3.53q-2.16-11.67-8.39-16.83T187,567.4a49.29,49.29,0,0,0-12.36,1.27,24.65,24.65,0,0,0-7.82,3.35,11.62,11.62,0,0,0-4.16,4.84,14.47,14.47,0,0,0-1.19,5.74q0,7.92,4.44,11.87T181,600.62l19.38,3.79Q223.35,609,234,619.18t10.64,29.39a41.57,41.57,0,0,1-3.48,17.11,38.18,38.18,0,0,1-10.3,13.64,48.74,48.74,0,0,1-17.12,9.08,80,80,0,0,1-24.14,3.23q-28.89,0-44.2-12.41T129,641.91l29.87,0Q159.8,655,167.2,661Z"
     transform="translate(-1.5 -75.33)"
     id="path12" />
  <path
     class="cls-3"
     d="M291.06,547,291,598a39,39,0,0,1,14.26-12.25,38.44,38.44,0,0,1,17-3.94q17.6,0,26.1,9.23t8.47,29l-.08,68.25-27.69,0,.07-64.49q0-10.89-4.14-14.84t-11.07-4a24.1,24.1,0,0,0-9.2,1.57,25.54,25.54,0,0,0-7.23,4.54,24.55,24.55,0,0,0-4.65,6.62,18.83,18.83,0,0,0-1.89,8.41l-.07,62.11-27.7,0,.17-141.25Z"
     transform="translate(-1.5 -75.33)"
     id="path14" />
  <path
     class="cls-3"
     d="M387.64,678.43Q375.13,665.34,375.16,641a61.91,61.91,0,0,1,3.38-21,43.27,43.27,0,0,1,9.65-15.79,42.14,42.14,0,0,1,15.17-9.88,59.11,59.11,0,0,1,39.77,0,41,41,0,0,1,24.66,25.72,63.07,63.07,0,0,1,3.25,21,62.23,62.23,0,0,1-3.39,21.15A44.14,44.14,0,0,1,458,678.15a41.44,41.44,0,0,1-15.17,10,54.43,54.43,0,0,1-19.8,3.43Q400.17,691.52,387.64,678.43Zm51.68-15q5.37-7.8,5.39-22.33t-5.33-22.16q-5.36-7.63-16.25-7.65t-16.26,7.61q-5.36,7.62-5.38,22.15,0,14.7,5.24,22.43t16.33,7.74Q434,671.23,439.32,663.42Z"
     transform="translate(-1.5 -75.33)"
     id="path16" />
  <path
     class="cls-3"
     d="M481.23,613.71l0-19.79,14.9,0,0-25.24,25.42,0,0,25.24,21.79,0,0,19.8-21.8,0,0,43.76q0,7.46,3.08,10.09a11.94,11.94,0,0,0,8,2.64,50.8,50.8,0,0,0,5.18-.27,30.36,30.36,0,0,0,5.18-1l3.61,18.71A60.11,60.11,0,0,1,536.25,690a74.32,74.32,0,0,1-9.53.63q-15.62,0-23.14-7.47T496.07,658l.05-44.31Z"
     transform="translate(-1.5 -75.33)"
     id="path18" />
  <path
     class="cls-3"
     d="M566.5,678.64Q554,665.56,554,641.22a61.66,61.66,0,0,1,3.39-21A43.25,43.25,0,0,1,567,604.46a42.09,42.09,0,0,1,15.18-9.88,59.08,59.08,0,0,1,39.76,0,41.07,41.07,0,0,1,24.67,25.72,63.33,63.33,0,0,1,3.24,21,62.23,62.23,0,0,1-3.38,21.15,44.08,44.08,0,0,1-9.65,15.88,41.32,41.32,0,0,1-15.17,10,54.39,54.39,0,0,1-19.8,3.43Q579,691.73,566.5,678.64Zm51.68-15q5.37-7.8,5.38-22.33t-5.33-22.16q-5.34-7.64-16.24-7.64t-16.26,7.6q-5.37,7.62-5.39,22.15,0,14.71,5.24,22.43t16.34,7.74Q612.81,671.44,618.18,663.63Z"
     transform="translate(-1.5 -75.33)"
     id="path20" />
  <path
     class="cls-3"
     d="M683.72,594.16l21.16,65.94,21.33-65.89,28.15,0L716.84,689l-25.43,0L654.3,594.12Z"
     transform="translate(-1.5 -75.33)"
     id="path22" />
  <path
     class="cls-3"
     d="M835.86,683.77Q825.6,692,806,692q-23.61,0-35.48-13.12t-11.85-37a61.34,61.34,0,0,1,3.47-21.34,45.29,45.29,0,0,1,9.74-15.88,40.9,40.9,0,0,1,15-9.88,53.11,53.11,0,0,1,19.25-3.33q21.79,0,32.76,12.57t10.95,33.79v10.16l-65.74-.07q.36,11.43,5.79,17.89t16.34,6.47q15.07,0,17.81-12.69l24.69,0Q846.14,675.53,835.86,683.77Zm-15.35-67.84q-4.82-5.46-15-5.47a22.47,22.47,0,0,0-8.9,1.63,18.9,18.9,0,0,0-6.45,4.44,20.11,20.11,0,0,0-4.09,6.53,24.88,24.88,0,0,0-1.64,8.08l40.85.05Q825.32,621.38,820.51,615.93Z"
     transform="translate(-1.5 -75.33)"
     id="path24" />
  <path
     class="cls-3"
     d="M893.61,594.41v13.25a32,32,0,0,1,11.45-11.15,28.84,28.84,0,0,1,14.17-3.71,56.62,56.62,0,0,1,6,.28c1.58.19,3,.4,4.18.64l-3.12,23.06a44.59,44.59,0,0,0-10.71-1.1,31.69,31.69,0,0,0-8,1,16.73,16.73,0,0,0-6.9,3.71,18.27,18.27,0,0,0-4.82,6.54,18.77,18.77,0,0,0-1.56,7.44l-.06,54.84-25.42,0,.11-94.79Z"
     transform="translate(-1.5 -75.33)"
     id="path26" />
  <rect
     class="cls-2"
     x="79.220001"
     y="165.07001"
     width="302.97"
     height="46.07"
     rx="27.494659"
     id="rect28" />
  <rect
     class="cls-2"
     y="242.39999"
     width="259.86011"
     height="46.07"
     rx="25.484541"
     id="rect30"
     x="0.86733508"
     style="stroke-width:0.801948" />
  <rect
     class="cls-2"
     x="84.269058"
     y="320.92453"
     width="152.15527"
     height="46.07"
     rx="31.425282"
     id="rect32"
     style="stroke-width:0.820212" />
  <path
     class="cls-4"
     d="M 360.25,286 258.34599,286.46483 302.47097,240.39362 360.25,239.93 c 12.67753,0.0602 22.9398,10.32247 23,23 v 0 c -0.0164,12.70712 -10.29299,23.015 -23,23.07 z"
     transform="translate(-1.5,-75.33)"
     id="path34"
     sodipodi:nodetypes="ccccssc" />
  <path
     class="cls-4"
     d="M 382.13,364 196.95943,363.80032 230.81,317.55 l 151.32,0.38 c 12.67979,0.0548 22.94523,10.32021 23,23 v 0 c -0.0218,12.70486 -10.29527,23.00955 -23,23.07 z"
     id="path36"
     transform="translate(-1.5,-75.33)"
     sodipodi:nodetypes="ccccssc" />
  <path
     class="cls-4"
     d="M 287.00906,366.47451 165.65,367.03 l 17.52719,-46.03664 103.82187,-0.58885 c 12.67753,0.0602 22.9398,10.32247 23,23 v 0 c -0.0163,12.70324 -10.2869,23.00952 -22.99,23.07 z"
     id="path38"
     sodipodi:nodetypes="ccccssc" />
</svg>
