<?xml version="1.0" encoding="UTF-8" standalone="no"?>
<svg
   id="Layer_2"
   data-name="Layer 2"
   viewBox="0 0 1022.5 480.00"
   version="1.1"
   sodipodi:docname="logo.svg"
   inkscape:version="1.1.1 (3bf5ae0d25, 2021-09-20)"
   xmlns:inkscape="http://www.inkscape.org/namespaces/inkscape"
   xmlns:sodipodi="http://sodipodi.sourceforge.net/DTD/sodipodi-0.dtd"
   xmlns="http://www.w3.org/2000/svg"
   xmlns:svg="http://www.w3.org/2000/svg">
  <sodipodi:namedview
     id="namedview41"
     pagecolor="#ffffff"
     bordercolor="#666666"
     borderopacity="1.0"
     inkscape:pageshadow="2"
     inkscape:pageopacity="0.0"
     inkscape:pagecheckerboard="0"
     showgrid="false"
     inkscape:zoom="1.4142136"
     inkscape:cx="463.86205"
     inkscape:cy="175.36248"
     inkscape:window-width="2560"
     inkscape:window-height="1000"
     inkscape:window-x="1024"
     inkscape:window-y="42"
     inkscape:window-maximized="1"
     inkscape:current-layer="Layer_2" />
  <defs
     id="defs4">
    <style
       id="style2">.cls-1{fill:#0156d3;}.cls-2{fill:#00aee2;}.cls-3{fill:#00c0f1;}.cls-4{fill:#fff;}</style>
  </defs>
  <path
     class="cls-3"
     d="M202.23,351.45S404.51,199.17,649.46,138.17L543.41,75.33C389.57,114.15,202.23,351.45,202.23,351.45Z"
     transform="translate(-1.5 -75.33)"
     id="path10" />
  <path
     class="cls-2"
     d="M201.63,351.59S512.93,227.9,804.78,195.93l-105.3-66.84C395.67,171.47,201.63,351.59,201.63,351.59Z"
     id="path8"
     transform="translate(-1.5 -75.33)" />
  <path
     class="cls-1"
     d="M 200.01,275.78364 165.65,366.7153 790.39,445.84 1022.5,112.74519 c 0,0 -298.71,-37.649747 -822.49,163.03845 z"
     id="path6"
     style="stroke-width:1.00199" />
  <rect
     class="cls-2"
     x="79.220001"
     y="165.07001"
     width="302.97"
     height="46.07"
     rx="27.494659"
     id="rect28" />
  <rect
     class="cls-2"
     y="242.39999"
     width="259.86011"
     height="46.07"
     rx="25.484541"
     id="rect30"
     x="0.86733508"
     style="stroke-width:0.801948" />
  <rect
     class="cls-2"
     x="84.269058"
     y="320.92453"
     width="152.15527"
     height="46.07"
     rx="31.425282"
     id="rect32"
     style="stroke-width:0.820212" />
  <path
     class="cls-4"
     d="M 360.25,286 258.34599,286.46483 302.47097,240.39362 360.25,239.93 c 12.67753,0.0602 22.9398,10.32247 23,23 v 0 c -0.0164,12.70712 -10.29299,23.015 -23,23.07 z"
     transform="translate(-1.5,-75.33)"
     id="path34"
     sodipodi:nodetypes="ccccssc" />
  <path
     class="cls-4"
     d="M 382.13,364 196.95943,363.80032 230.81,317.55 l 151.32,0.38 c 12.67979,0.0548 22.94523,10.32021 23,23 v 0 c -0.0218,12.70486 -10.29527,23.00955 -23,23.07 z"
     id="path36"
     transform="translate(-1.5,-75.33)"
     sodipodi:nodetypes="ccccssc" />
  <path
     class="cls-4"
     d="M 287.00906,366.47451 165.65,367.03 l 17.52719,-46.03664 103.82187,-0.58885 c 12.67753,0.0602 22.9398,10.32247 23,23 v 0 c -0.0163,12.70324 -10.2869,23.00952 -22.99,23.07 z"
     id="path38"
     sodipodi:nodetypes="ccccssc" />
</svg>
